<svg width="24" height="24" viewBox="0 0 24 24" fill="none" xmlns="http://www.w3.org/2000/svg">
<path d="M11.997 15.1746C7.684 15.1746 4 15.8546 4 18.5746C4 21.2956 7.661 21.9996 11.997 21.9996C16.31 21.9996 19.994 21.3206 19.994 18.5996C19.994 15.8786 16.334 15.1746 11.997 15.1746Z" fill="#68B5BD"/>
<path d="M11.9971 12.5838C14.9351 12.5838 17.2891 10.2288 17.2891 7.29176C17.2891 4.35476 14.9351 1.99976 11.9971 1.99976C9.06008 1.99976 6.70508 4.35476 6.70508 7.29176C6.70508 10.2288 9.06008 12.5838 11.9971 12.5838Z" fill="#F5BC68"/>
<path d="M22.6466 19.0314C22.5362 18.8608 22.3794 18.6903 22.1761 18.5823C22.0134 18.5027 21.9089 18.372 21.8159 18.2185C21.5197 17.7297 21.6939 17.0874 22.1877 16.7975C22.7686 16.4735 22.9545 15.7516 22.6176 15.1888L22.2284 14.5181C21.8972 13.9554 21.1711 13.7564 20.596 14.0861C20.0848 14.3589 19.4284 14.1771 19.1321 13.6939C19.0392 13.5347 18.9869 13.3642 18.9985 13.1937C19.016 12.972 18.9463 12.7617 18.8417 12.5912C18.6268 12.2387 18.2376 12 17.8077 12H16.9886C16.5646 12.0114 16.1754 12.2387 15.9604 12.5912C15.85 12.7617 15.7861 12.972 15.7978 13.1937C15.8094 13.3642 15.7571 13.5347 15.6642 13.6939C15.3679 14.1771 14.7115 14.3589 14.2061 14.0861C13.6252 13.7564 12.9049 13.9554 12.5679 14.5181L12.1787 15.1888C11.8476 15.7516 12.0335 16.4735 12.6086 16.7975C13.1024 17.0874 13.2767 17.7297 12.9862 18.2185C12.8874 18.372 12.7829 18.5027 12.6202 18.5823C12.4227 18.6903 12.2485 18.8608 12.1555 19.0314C11.9406 19.3838 11.9522 19.8272 12.1671 20.1966L12.5679 20.8787C12.7829 21.2425 13.1837 21.4699 13.602 21.4699C13.7995 21.4699 14.0318 21.4131 14.2177 21.2994C14.3629 21.2027 14.5372 21.1686 14.7289 21.1686C15.304 21.1686 15.7861 21.6404 15.7978 22.2032C15.7978 22.8568 16.3322 23.3684 17.006 23.3684H17.7961C18.4641 23.3684 18.9985 22.8568 18.9985 22.2032C19.016 21.6404 19.4981 21.1686 20.0732 21.1686C20.2591 21.1686 20.4334 21.2027 20.5844 21.2994C20.7703 21.4131 20.9968 21.4699 21.2002 21.4699C21.6126 21.4699 22.0134 21.2425 22.2284 20.8787L22.635 20.1966C22.8441 19.8158 22.8615 19.3838 22.6466 19.0314Z" fill="#D85988"/>
<path d="M17.4056 19.2929C16.4936 19.2929 15.7559 18.5824 15.7559 17.6899C15.7559 16.7975 16.4936 16.0813 17.4056 16.0813C18.3176 16.0813 19.038 16.7975 19.038 17.6899C19.038 18.5824 18.3176 19.2929 17.4056 19.2929Z" fill="#A2345D"/>
</svg>
